<svg width="42" height="42" viewBox="0 0 42 42" fill="none" xmlns="http://www.w3.org/2000/svg">
<path d="M14.7011 19.4567C13.1872 17.9512 12.25 15.8663 12.25 13.5625C12.25 11.2587 13.1872 9.17383 14.7011 7.66829C13.8295 7.24032 12.8491 7 11.8125 7C8.18813 7 5.25 9.93813 5.25 13.5625C5.25 17.1869 8.18813 20.125 11.8125 20.125C12.8491 20.125 13.8295 19.8847 14.7011 19.4567Z" fill="#3B9EA2"/>
<path d="M14 13.5625C14 9.93813 16.9381 7 20.5625 7C24.1869 7 27.125 9.93813 27.125 13.5625C27.125 17.1869 24.1869 20.125 20.5625 20.125C16.9381 20.125 14 17.1869 14 13.5625Z" fill="#3B9EA2"/>
<path d="M26.4239 7.66829C27.9378 9.17383 28.875 11.2587 28.875 13.5625C28.875 15.8663 27.9378 17.9512 26.4239 19.4567C27.2955 19.8847 28.2759 20.125 29.3125 20.125C32.9369 20.125 35.875 17.1869 35.875 13.5625C35.875 9.93813 32.9369 7 29.3125 7C28.2759 7 27.2955 7.24032 26.4239 7.66829Z" fill="#3B9EA2"/>
<path d="M8.75 29.3125C8.75 25.6881 11.6881 22.75 15.3125 22.75H25.8125C29.4369 22.75 32.375 25.6881 32.375 29.3125C32.375 32.9369 29.4369 35.875 25.8125 35.875H15.3125C11.6881 35.875 8.75 32.9369 8.75 29.3125Z" fill="#3B9EA2"/>
<path d="M0 27.5625C0 23.9381 2.93813 21 6.5625 21H15.3125C10.7216 21 7 24.7216 7 29.3125C7 31.106 7.56802 32.7669 8.53397 34.125H6.5625C2.93813 34.125 0 31.1869 0 27.5625Z" fill="#3B9EA2"/>
<path d="M34.125 29.3125C34.125 31.106 33.557 32.7669 32.591 34.125H34.5625C38.1869 34.125 41.125 31.1869 41.125 27.5625C41.125 23.9381 38.1869 21 34.5625 21H25.8125C30.4034 21 34.125 24.7216 34.125 29.3125Z" fill="#3B9EA2"/>
</svg>
